<svg id="Layer_1" data-name="Layer 1" xmlns="http://www.w3.org/2000/svg" viewBox="0 0 1024 383"><defs><style>.cls-1{fill:#af7fd8;}.cls-2{fill:#e57e39;}</style></defs><title>Artboard 1</title><g id="Layer_3" data-name="Layer 3"><path d="M459.21,270.3H443V212q0-16.86-5.21-24.39t-17.5-7.54q-10.41,0-17.7,9.52t-7.28,22.81v57.9H379V210q0-29.94-23.11-29.95-10.69,0-17.64,9t-6.94,23.35v57.9H315.05V168.77h16.26v16.06h.39q10.82-18.44,31.53-18.44a29.29,29.29,0,0,1,28.75,21q11.31-21,33.71-21,33.51,0,33.52,41.35Z"/><path d="M506.2,270.3H489.94V196.44H506.2Z"/><path d="M623.39,270.3H607.13V212.4q0-32.33-23.59-32.33a25.59,25.59,0,0,0-20.18,9.18q-8,9.17-8,23.15v57.9H539.12V168.77h16.26v16.86h.4q11.49-19.24,33.31-19.24,16.65,0,25.48,10.76t8.82,31.08Z"/><path d="M740.68,270.3H724.42V253.05H724q-11.31,19.62-34.9,19.63-19.14,0-30.59-13.63t-11.45-37.14q0-25.17,12.69-40.35t33.81-15.17q20.93,0,30.44,16.46h.39l-.33-55.6L740.68,120Zm-16.26-45.91v-15a29.06,29.06,0,0,0-8.13-20.82Q708.16,180,695.67,180q-14.86,0-23.4,10.91t-8.52,30.14q0,17.55,8.18,27.71t22,10.17q13.58,0,22.06-9.82t8.43-24.76Z"/><path class="cls-1" d="M787.09,155.83a17.65,17.65,0,0,1-18.22-17.08c0-.3,0-.61,0-.92A17,17,0,0,1,774,125.06a18.08,18.08,0,0,1,13.12-5q8.11,0,13.17,5a17,17,0,0,1,5,12.75,17.53,17.53,0,0,1-5,13Q795.19,155.83,787.09,155.83Z"/><rect x="771.79" y="170.87" width="31.36" height="99.08"/><path d="M891,268.64q-6.94,4-20.94,4.06-33.15,0-33.15-38.14V183H820.43V157.41h16.48V133.12l31.26-9.89v34.18H891V183H868.17v45.5q0,17.58,12.61,17.58A19.76,19.76,0,0,0,891,242.92Z"/><path class="cls-2" d="M497.43,187.75a10.35,10.35,0,0,1-7.44-3,10.09,10.09,0,0,1-3.07-7.54,10.4,10.4,0,0,1,10.19-10.61h.32a10.5,10.5,0,0,1,7.6,18l0,0A10.44,10.44,0,0,1,497.43,187.75Z"/><path class="cls-1" d="M208.88,76.82a22.9,22.9,0,0,0-6.67-3.37,24,24,0,0,0-18,1.32,24.25,24.25,0,0,0-12.83,21.85c.31,8,5.69,14,14,15.61a1.46,1.46,0,0,1,1.15,1.7,1.44,1.44,0,0,1-1.69,1.14h0c-7.15-1.38-12.54-5.75-15-11.74a1,1,0,0,1-.17.1c-8.41,3.17-11.26,12.39-9.74,19.86,1.2,5.82,4.53,11.15,7.63,15.61a1.44,1.44,0,0,1-1.19,2.26,1.48,1.48,0,0,1-1.19-.62c-3.26-4.69-6.78-10.35-8.08-16.68-2.07-10.12,2.79-19.85,11.56-23.14a1,1,0,0,1,.34-.06,20.12,20.12,0,0,1-.56-3.94,26.51,26.51,0,0,1,40.39-23.37L209,14.69C204,7,195.22,3.05,185.56,4.2c-10.41,1.23-18.87,7.88-22.1,17.36l-.29.88c-3.2,10.46.48,20,9.62,24.83a1.45,1.45,0,1,1-1.19,2.65l-.16-.09c-10-5.31-14.31-15.53-11.39-26.89-11.4-3.47-23.15,3.93-29.87,13a34.62,34.62,0,0,0-6,24.75c.64,4.08,2.48,9.72,7.61,13.4a19.55,19.55,0,0,0,8.74,3.38,1.45,1.45,0,0,1-.21,2.88h-.21a22.7,22.7,0,0,1-9.29-3.44c-6.44,2.41-11.18,7.37-13.7,14.42-3.8,10.63-2.13,25.53,4,35.42,4.92,7.95,13.24,14,21.73,15.69a23.57,23.57,0,0,0,8.82.17,1.45,1.45,0,0,1,.69,2.82l-.19,0a25.85,25.85,0,0,1-4.39.38,27.31,27.31,0,0,1-3.94-.32c-2.93,12.92.33,24,9.72,33.08,2.09,2,4.35,3.94,6.54,5.81a95.89,95.89,0,0,1,10.59,10.06A49.55,49.55,0,0,1,182,220.7c.15,1.31.83,13,.62,17.67a.41.41,0,0,0,.1.3.44.44,0,0,0,.31.13h26v-34c-4,.85-8.93,1.23-13.42-1.32a15.62,15.62,0,0,1-3.15-2.4,16.58,16.58,0,0,1-4.06-16.94,1.45,1.45,0,1,1,2.78.81.65.65,0,0,1,0,.13A13.8,13.8,0,0,0,194.47,199a12.1,12.1,0,0,0,2.56,2c3.07,1.75,6.81,2,12,.87Zm-18.12,18c5.68-.62,10.47,4,12.11,8.74s1.09,9.89.23,14.75a20.64,20.64,0,0,1-2.09,6.81,9.11,9.11,0,0,1-7.85,4.83,8.22,8.22,0,0,1-2.73-.48,1.45,1.45,0,1,1,.9-2.76l.1,0c2.93,1.06,5.77-.73,7.07-3a18.39,18.39,0,0,0,1.76-5.89c.79-4.48,1.33-9.19-.11-13.29-1.28-3.65-4.9-7.27-9.07-6.83a1.44,1.44,0,0,1-.31-2.87ZM179.83,38A12.75,12.75,0,0,1,189,30.51c7.93-1.47,13,4.66,14.86,10.35a1.45,1.45,0,0,1-.9,1.83h0a1.44,1.44,0,0,1-.46.08,1.45,1.45,0,0,1-1.37-1c-1.54-4.6-5.49-9.55-11.59-8.43a9.93,9.93,0,0,0-7.07,5.85,1.45,1.45,0,0,1-2.73-1l.09-.2Zm-29.17,63.23a13.7,13.7,0,0,1-8.14,2.82,10.6,10.6,0,0,1-4.05-.77,1.49,1.49,0,0,1-.87-1.87,1.38,1.38,0,0,1,1.74-.88h0l.19.07A9.83,9.83,0,0,0,148.9,99a19,19,0,0,0,5.95-8.78,26.06,26.06,0,0,0,1.62-12.84c-1-6.63-5.12-11.48-10.72-12.66a9.63,9.63,0,0,0-1.29-.21,1.45,1.45,0,0,1,.34-2.88c.54.07,1,.15,1.56.26,6.8,1.43,11.77,7.2,13,15a28.56,28.56,0,0,1-1.77,14.29,22.4,22.4,0,0,1-6.93,10.07Zm39.87,59.24a18,18,0,0,1-14.95,10.39q-.92.09-1.83.09a17.42,17.42,0,0,1-14.38-7.29,1.44,1.44,0,0,1,2.35-1.68h0a14.72,14.72,0,0,0,13.59,6,15.14,15.14,0,0,0,12.59-8.71,15.47,15.47,0,0,0,0-12.54,12.54,12.54,0,0,0-7.56-7.13,1.45,1.45,0,1,1,.9-2.75,15.43,15.43,0,0,1,9.31,8.72,18.41,18.41,0,0,1,0,14.92Z"/><path class="cls-2" d="M247.23,206.7c4.66-15.88,14.13-28.46,23.3-40.62q7.52-9.65,14.05-20C308.47,106.69,304,43.64,262.19,18.19,248.83,10.05,231.91,5.9,211.9,5.87v99.37a29.32,29.32,0,0,0,12.6,8.34C226.45,102.37,230,95,235.22,91.14a12.32,12.32,0,0,1,11.16-1.53,12.63,12.63,0,0,1,8.29,8.06A11.74,11.74,0,0,1,252,109.74c-4.65,5-13.75,7.74-21.07,7.74a23.32,23.32,0,0,1-4-.35c-.46,3.21-.77,6.31-1,9.08l-.2,2.06c-3.93,39.29-8.58,100.09-9.37,110.53h26.58C242,231.91,246.73,208.42,247.23,206.7Zm7.32-166.77c-.75-.5-1.5-1-2.27-1.45l-1-.58c-1.82-1.06-5.23-2.62-5.74-4.94-.38-1.71,1.09-3,2.57-3.5,2.71-.94,5.75-.13,8.26,1.26,15.41,8.53,26,25.18,30.7,41.8,1.75,6.25,2.79,13.53.69,19.83-.61,1.84-2.09,2.88-3.88,1.68a8.18,8.18,0,0,1-3.12-5,35.58,35.58,0,0,1-.6-6C279.12,65.84,268.75,49.53,254.55,39.93Z"/><path class="cls-2" d="M227.31,114.31c6.7,1.18,17.65-1.28,22.53-6.54a8.88,8.88,0,0,0,2.07-9.24,9.76,9.76,0,0,0-6.43-6.17,9.4,9.4,0,0,0-8.54,1.11C232.27,96.91,229.11,103.74,227.31,114.31Z"/><path class="cls-2" d="M223,125.93c.28-2.86.6-6.08,1.09-9.43h0A31.83,31.83,0,0,1,212,109.4V238.8h1.47c.74-9.81,5.43-71.22,9.39-110.82Z"/><path class="cls-2" d="M241.33,243.14a28.71,28.71,0,0,1-57.41,0Z"/></g></svg>