<?xml version="1.0" encoding="utf-8"?>
<!-- Generator: Adobe Illustrator 22.1.0, SVG Export Plug-In . SVG Version: 6.00 Build 0)  -->
<svg version="1.1" id="Layer_1" xmlns="http://www.w3.org/2000/svg" xmlns:xlink="http://www.w3.org/1999/xlink" x="0px" y="0px"
	 viewBox="0 0 1024 348" style="enable-background:new 0 0 1024 348;" xml:space="preserve">
<style type="text/css">
	.st0{fill:#AF7FD8;}
	.st1{fill:#E57E39;}
</style>
<title>Artboard 2</title>
<g id="Layer_3">
	<path d="M459.2,270.3H443V212c0-11.2-1.7-19.4-5.2-24.4c-3.5-5-9.3-7.5-17.5-7.5c-6.9,0-12.8,3.2-17.7,9.5
		c-4.9,6.3-7.3,13.9-7.3,22.8v57.9H379V210c0-20-7.7-29.9-23.1-29.9c-7.1,0-13,3-17.6,9c-4.6,6-6.9,13.8-6.9,23.3v57.9H315V168.8
		h16.3v16.1h0.4c7.2-12.3,17.7-18.4,31.5-18.4c13.2-0.3,25,8.3,28.8,21c7.5-14,18.8-21,33.7-21c22.3,0,33.5,13.8,33.5,41.3V270.3z"
		/>
	<path d="M506.2,270.3h-16.3v-73.9h16.3V270.3z"/>
	<path d="M623.4,270.3h-16.3v-57.9c0-21.5-7.9-32.3-23.6-32.3c-7.8-0.2-15.2,3.2-20.2,9.2c-5.3,6.1-8,13.8-8,23.1v57.9h-16.2V168.8
		h16.3v16.9h0.4c7.7-12.8,18.8-19.2,33.3-19.2c11.1,0,19.6,3.6,25.5,10.8c5.9,7.2,8.8,17.5,8.8,31.1V270.3z"/>
	<path d="M740.7,270.3h-16.3V253H724c-7.5,13.1-19.2,19.6-34.9,19.6c-12.8,0-23-4.5-30.6-13.6c-7.6-9.1-11.5-21.5-11.5-37.1
		c0-16.8,4.2-30.2,12.7-40.4c8.5-10.1,19.7-15.2,33.8-15.2c13.9,0,24.1,5.5,30.4,16.5h0.4l-0.3-55.6l16.6-7.2V270.3z M724.4,224.4
		v-15c0.2-7.7-2.8-15.2-8.1-20.8c-5.4-5.7-12.3-8.5-20.6-8.5c-9.9,0-17.7,3.6-23.4,10.9c-5.7,7.3-8.5,17.3-8.5,30.1
		c0,11.7,2.7,20.9,8.2,27.7c5.5,6.8,12.8,10.2,22,10.2c9.1,0,16.4-3.3,22.1-9.8S724.5,234.3,724.4,224.4L724.4,224.4z"/>
	<path class="st0" d="M787.1,155.8c-9.7,0.3-17.9-7.3-18.2-17.1c0-0.3,0-0.6,0-0.9c-0.2-4.8,1.7-9.4,5.1-12.8
		c3.5-3.3,8.3-5.1,13.1-4.9c5.4,0,9.8,1.7,13.2,4.9c3.4,3.4,5.2,8,5,12.8c0.2,4.8-1.6,9.5-5,13C796.9,154.2,792.5,155.8,787.1,155.8
		z"/>
	<rect x="771.8" y="170.9" width="31.4" height="99.1"/>
	<path d="M891,268.6c-4.6,2.7-11.6,4-20.9,4.1c-22.1,0-33.2-12.7-33.2-38.1V183h-16.5v-25.6h16.5v-24.3l31.3-9.9v34.2H891V183h-22.8
		v45.5c0,11.7,4.2,17.6,12.6,17.6c3.6-0.1,7.2-1.2,10.2-3.2V268.6z"/>
	<path class="st1" d="M497.4,187.8c-2.8,0-5.5-1-7.4-3c-2-2-3.2-4.7-3.1-7.5c-0.1-5.7,4.4-10.5,10.2-10.6c0.1,0,0.2,0,0.3,0
		c2.8-0.1,5.6,1,7.6,3c4.1,4.1,4.2,10.8,0,15c0,0,0,0,0,0C503,186.6,500.3,187.8,497.4,187.8z"/>
	<path class="st0" d="M208.9,76.8c-2-1.5-4.3-2.6-6.7-3.4c-5.9-1.9-12.4-1.4-18,1.3c-8,4.3-13,12.7-12.8,21.9c0.3,8,5.7,14,14,15.6
		c0.8,0.2,1.3,0.9,1.1,1.7c-0.1,0.8-0.9,1.3-1.7,1.1c0,0,0,0,0,0c-7.1-1.4-12.5-5.8-15-11.7c-0.1,0-0.1,0.1-0.2,0.1
		c-8.4,3.2-11.3,12.4-9.7,19.9c1.2,5.8,4.5,11.1,7.6,15.6c0.4,0.7,0.3,1.5-0.4,2c-0.2,0.2-0.5,0.3-0.8,0.3c-0.5,0-0.9-0.2-1.2-0.6
		c-3.3-4.7-6.8-10.4-8.1-16.7c-2.1-10.1,2.8-19.9,11.6-23.1c0.1,0,0.2-0.1,0.3-0.1c-0.3-1.3-0.5-2.6-0.6-3.9
		c-0.4-14.6,11.1-26.9,25.7-27.3c5.2-0.2,10.3,1.2,14.7,3.9l0.2-58.7C204,7,195.2,3.1,185.6,4.2c-10.4,1.2-18.9,7.9-22.1,17.4
		l-0.3,0.9c-3.2,10.5,0.5,20,9.6,24.8c0.7,0.3,1.1,1.2,0.7,1.9c-0.3,0.7-1.2,1.1-1.9,0.7c-0.1,0-0.1-0.1-0.2-0.1
		c-10-5.3-14.3-15.5-11.4-26.9c-11.4-3.5-23.1,3.9-29.9,13c-5.1,7.2-7.2,16-6,24.8c0.6,4.1,2.5,9.7,7.6,13.4c2.6,1.8,5.6,3,8.7,3.4
		c0.8,0.1,1.3,0.9,1.2,1.7c-0.1,0.7-0.7,1.2-1.4,1.2h-0.2c-3.3-0.4-6.5-1.6-9.3-3.4c-6.4,2.4-11.2,7.4-13.7,14.4
		c-3.8,10.6-2.1,25.5,4,35.4c4.9,7.9,13.2,14,21.7,15.7c2.9,0.6,5.9,0.7,8.8,0.2c0.8-0.2,1.6,0.3,1.8,1.1s-0.3,1.6-1.1,1.8
		c-0.1,0-0.1,0-0.2,0c-1.4,0.3-2.9,0.4-4.4,0.4c-1.3,0-2.6-0.1-3.9-0.3c-2.9,12.9,0.3,24,9.7,33.1c2.1,2,4.4,3.9,6.5,5.8
		c3.8,3.1,7.3,6.4,10.6,10.1c6.3,7.4,10.2,16.6,11.3,26.2c0.1,1.3,0.8,13,0.6,17.7c0,0.1,0,0.2,0.1,0.3c0.1,0.1,0.2,0.1,0.3,0.1h26
		v-34c-4,0.9-8.9,1.2-13.4-1.3c-1.1-0.7-2.2-1.5-3.1-2.4c-4.4-4.4-6-11-4.1-16.9c0.2-0.8,1-1.2,1.8-1c0.8,0.2,1.2,1,1,1.8
		c0,0,0,0.1,0,0.1c-1.6,4.9-0.3,10.3,3.3,13.9c0.8,0.8,1.6,1.5,2.6,2c3.1,1.8,6.8,2,12,0.9L208.9,76.8z M190.8,94.8
		c5.7-0.6,10.5,4,12.1,8.7s1.1,9.9,0.2,14.8c-0.3,2.4-1,4.7-2.1,6.8c-1.6,2.9-4.6,4.8-7.9,4.8c-0.9,0-1.9-0.2-2.7-0.5
		c-0.8-0.2-1.2-1.1-0.9-1.8s1.1-1.2,1.8-0.9c0,0,0.1,0,0.1,0c2.9,1.1,5.8-0.7,7.1-3c0.9-1.9,1.5-3.8,1.8-5.9
		c0.8-4.5,1.3-9.2-0.1-13.3c-1.3-3.6-4.9-7.3-9.1-6.8c-0.8,0.1-1.5-0.5-1.6-1.3S190,95,190.8,94.8L190.8,94.8z M179.8,38
		c1.6-3.9,5.1-6.7,9.2-7.5c7.9-1.5,13,4.7,14.9,10.3c0.3,0.8-0.1,1.6-0.9,1.8c0,0,0,0,0,0c-0.1,0.1-0.3,0.1-0.5,0.1
		c-0.6,0-1.2-0.4-1.4-1c-1.5-4.6-5.5-9.6-11.6-8.4c-3.2,0.7-5.8,2.9-7.1,5.8c-0.3,0.8-1.1,1.1-1.9,0.9c-0.8-0.3-1.1-1.1-0.9-1.9
		C179.8,38.1,179.8,38.1,179.8,38L179.8,38z M150.7,101.2c-2.3,1.8-5.2,2.8-8.1,2.8c-1.4,0-2.8-0.3-4.1-0.8
		c-0.7-0.3-1.1-1.1-0.9-1.9c0.2-0.7,1-1.1,1.7-0.9c0,0,0,0,0,0l0.2,0.1c3.2,1.1,6.7,0.5,9.3-1.6c2.8-2.3,4.8-5.3,5.9-8.8
		c1.6-4.1,2.2-8.5,1.6-12.8c-1-6.6-5.1-11.5-10.7-12.7c-0.4-0.1-0.9-0.2-1.3-0.2c-0.8-0.1-1.4-0.8-1.3-1.6c0.1-0.8,0.8-1.4,1.6-1.3
		c0.5,0.1,1,0.2,1.6,0.3c6.8,1.4,11.8,7.2,13,15c0.6,4.8,0,9.8-1.8,14.3C155.9,95.6,153.6,99,150.7,101.2L150.7,101.2z M190.5,160.5
		c-2.7,5.9-8.5,9.9-14.9,10.4c-0.6,0.1-1.2,0.1-1.8,0.1c-5.7,0.1-11.1-2.7-14.4-7.3c-0.5-0.6-0.3-1.6,0.3-2s1.6-0.3,2,0.3l0,0
		c3.1,4.3,8.3,6.6,13.6,6c5.5-0.4,10.3-3.7,12.6-8.7c1.8-4,1.8-8.5,0-12.5c-1.4-3.4-4.1-6-7.6-7.1c-0.8-0.2-1.2-1.1-0.9-1.8
		c0.3-0.8,1.1-1.2,1.8-0.9c4.2,1.4,7.6,4.6,9.3,8.7C192.6,150.3,192.6,155.7,190.5,160.5L190.5,160.5z"/>
	<path class="st1" d="M247.2,206.7c4.7-15.9,14.1-28.5,23.3-40.6c5-6.4,9.7-13.1,14-20c23.9-39.4,19.4-102.4-22.4-127.9
		c-13.4-8.1-30.3-12.3-50.3-12.3v99.4c3.4,3.8,7.7,6.7,12.6,8.3c1.9-11.2,5.5-18.6,10.7-22.4c3.3-2.3,7.4-2.8,11.2-1.5
		c3.9,1.2,7,4.2,8.3,8.1c1.5,4.2,0.4,8.9-2.7,12.1c-4.6,5-13.8,7.7-21.1,7.7c-1.3,0-2.7-0.1-4-0.4c-0.5,3.2-0.8,6.3-1,9.1l-0.2,2.1
		c-3.9,39.3-8.6,100.1-9.4,110.5h26.6C242,231.9,246.7,208.4,247.2,206.7z M254.6,39.9c-0.8-0.5-1.5-1-2.3-1.4l-1-0.6
		c-1.8-1.1-5.2-2.6-5.7-4.9c-0.4-1.7,1.1-3,2.6-3.5c2.7-0.9,5.8-0.1,8.3,1.3c15.4,8.5,26,25.2,30.7,41.8c1.8,6.3,2.8,13.5,0.7,19.8
		c-0.6,1.8-2.1,2.9-3.9,1.7c-1.6-1.2-2.7-3-3.1-5c-0.4-2-0.6-4-0.6-6C279.1,65.8,268.8,49.5,254.6,39.9z"/>
	<path class="st1" d="M227.3,114.3c6.7,1.2,17.6-1.3,22.5-6.5c2.4-2.4,3.2-6,2.1-9.2c-1-3-3.4-5.3-6.4-6.2c-2.9-1-6-0.6-8.5,1.1
		C232.3,96.9,229.1,103.7,227.3,114.3z"/>
	<path class="st1" d="M223,125.9c0.3-2.9,0.6-6.1,1.1-9.4l0,0l0,0c-4.5-1.4-8.7-3.9-12.1-7.1v129.4h1.5c0.7-9.8,5.4-71.2,9.4-110.8
		L223,125.9z"/>
	<path class="st1" d="M241.3,243.1c-0.3,15.9-13.4,28.5-29.2,28.2c-15.4-0.3-27.9-12.7-28.2-28.2H241.3z"/>
</g>
</svg>
