<svg xmlns="http://www.w3.org/2000/svg" viewBox="0 0 1024 403"><defs><style>.cls-1{fill:#af7fd8;}.cls-2{fill:#e57e39;}</style></defs><title>Artboard 2</title><g id="Layer_3" data-name="Layer 3"><path d="M459.21,333.3H443V275q0-16.86-5.21-24.39t-17.5-7.54q-10.41,0-17.7,9.52t-7.28,22.81v57.9H379V273q0-29.94-23.11-29.95-10.69,0-17.64,9t-6.94,23.35v57.9H315.05V231.77h16.26v16.06h.39q10.82-18.44,31.53-18.44a29.3,29.3,0,0,1,28.75,21q11.31-21,33.71-21,33.51,0,33.52,41.35Z"/><path d="M506.2,333.3H489.94V259.44H506.2Z"/><path d="M623.39,333.3H607.13V275.4q0-32.32-23.59-32.33a25.59,25.59,0,0,0-20.18,9.18q-8,9.17-8,23.15v57.9H539.12V231.77h16.26v16.86h.4q11.49-19.24,33.31-19.24,16.65,0,25.48,10.76t8.82,31.08Z"/><path d="M740.68,333.3H724.42V316.05H724q-11.31,19.62-34.9,19.63-19.14,0-30.59-13.63t-11.45-37.14q0-25.17,12.69-40.35t33.81-15.17q20.92,0,30.44,16.46h.39l-.33-55.6L740.68,183Zm-16.26-45.91v-15a29.06,29.06,0,0,0-8.13-20.82q-8.13-8.52-20.62-8.53-14.86,0-23.4,10.91t-8.52,30.14q0,17.55,8.18,27.71t22,10.17q13.58,0,22.06-9.82T724.42,287.39Z"/><path class="cls-1" d="M787.09,218.83a17.66,17.66,0,0,1-18.23-18A17,17,0,0,1,774,188.06a18.08,18.08,0,0,1,13.12-4.95q8.11,0,13.17,4.95a17,17,0,0,1,5,12.75,17.53,17.53,0,0,1-5,13Q795.19,218.84,787.09,218.83Z"/><rect x="771.79" y="233.87" width="31.36" height="99.08"/><path d="M891,331.64q-6.94,4-20.94,4.06-33.15,0-33.15-38.14V246H820.43V220.41h16.48V196.12l31.26-9.89v34.18H891V246H868.17v45.5q0,17.58,12.61,17.58A19.77,19.77,0,0,0,891,305.92Z"/><path class="cls-2" d="M497.43,250.75a10.32,10.32,0,0,1-7.44-3,10.06,10.06,0,0,1-3.07-7.54,10.4,10.4,0,0,1,10.51-10.61,10.51,10.51,0,0,1,7.58,3,10.59,10.59,0,0,1,0,15A10.4,10.4,0,0,1,497.43,250.75Z"/><path class="cls-1" d="M208.88,139.82a22.88,22.88,0,0,0-6.67-3.37,24,24,0,0,0-18,1.32,24.25,24.25,0,0,0-12.83,21.85c.31,8,5.69,14,14,15.61a1.46,1.46,0,0,1,1.15,1.7,1.44,1.44,0,0,1-1.7,1.14c-7.15-1.38-12.54-5.75-15-11.74a1,1,0,0,1-.17.1c-8.41,3.17-11.26,12.39-9.74,19.86,1.2,5.82,4.53,11.15,7.63,15.61a1.45,1.45,0,0,1-.36,2,1.41,1.41,0,0,1-.83.26,1.48,1.48,0,0,1-1.19-.62c-3.26-4.69-6.78-10.35-8.08-16.68-2.07-10.12,2.79-19.85,11.56-23.14a1,1,0,0,1,.34-.06,20.23,20.23,0,0,1-.56-3.94,26.51,26.51,0,0,1,40.39-23.37L209,77.69C204,70,195.22,66.05,185.56,67.2c-10.41,1.23-18.87,7.88-22.1,17.36l-.29.88c-3.2,10.46.48,20,9.62,24.83a1.45,1.45,0,1,1-1.35,2.56c-10-5.31-14.31-15.53-11.39-26.89-11.4-3.47-23.15,3.93-29.87,13a34.63,34.63,0,0,0-6,24.75c.64,4.08,2.48,9.72,7.61,13.4a19.52,19.52,0,0,0,8.74,3.38,1.45,1.45,0,0,1-.21,2.88l-.21,0a22.67,22.67,0,0,1-9.29-3.44c-6.44,2.41-11.18,7.37-13.7,14.42-3.8,10.63-2.13,25.53,4,35.42,4.92,7.95,13.24,14,21.73,15.69a23.65,23.65,0,0,0,8.82.17,1.45,1.45,0,1,1,.5,2.85,25.59,25.59,0,0,1-4.39.38,27.78,27.78,0,0,1-3.94-.32c-2.93,12.92.33,24,9.72,33.08,2.09,2,4.35,3.94,6.54,5.81a95.46,95.46,0,0,1,10.59,10.06A49.56,49.56,0,0,1,182,283.7c.15,1.31.83,13,.62,17.67a.4.4,0,0,0,.1.3.43.43,0,0,0,.31.13h26v-34c-4,.85-8.93,1.23-13.42-1.32a15.82,15.82,0,0,1-3.15-2.4,16.6,16.6,0,0,1-4.06-16.94,1.45,1.45,0,1,1,2.74.94A13.8,13.8,0,0,0,194.47,262a12.22,12.22,0,0,0,2.56,2c3.07,1.75,6.81,2,12,.87Zm-18.12,18c5.68-.62,10.47,4,12.11,8.74s1.09,9.89.23,14.75a20.63,20.63,0,0,1-2.09,6.81,9.13,9.13,0,0,1-7.85,4.83,8.14,8.14,0,0,1-2.73-.48,1.45,1.45,0,1,1,1-2.72c2.93,1.06,5.77-.73,7.07-3a18.45,18.45,0,0,0,1.76-5.89c.79-4.48,1.33-9.19-.11-13.29-1.28-3.65-4.9-7.27-9.07-6.83a1.44,1.44,0,1,1-.31-2.87ZM179.83,101A12.75,12.75,0,0,1,189,93.51c7.93-1.47,13,4.66,14.86,10.35a1.44,1.44,0,0,1-.91,1.83,1.48,1.48,0,0,1-.46.08,1.45,1.45,0,0,1-1.37-1c-1.54-4.6-5.49-9.55-11.59-8.43a9.91,9.91,0,0,0-7.07,5.85,1.45,1.45,0,1,1-2.64-1.18Zm-29.17,63.23a13.67,13.67,0,0,1-8.14,2.82,10.61,10.61,0,0,1-4.05-.77,1.49,1.49,0,0,1-.87-1.87,1.38,1.38,0,0,1,1.77-.87l.19.07A9.82,9.82,0,0,0,148.9,162a19,19,0,0,0,5.95-8.78,26,26,0,0,0,1.62-12.84c-1-6.63-5.12-11.48-10.72-12.66a11.18,11.18,0,0,0-1.29-.21,1.45,1.45,0,0,1,.34-2.88c.54.07,1,.15,1.56.26,6.8,1.43,11.77,7.2,13,15a28.52,28.52,0,0,1-1.77,14.29C155.89,158.65,153.57,162,150.66,164.25Zm39.87,59.24a18,18,0,0,1-14.95,10.39q-.92.09-1.83.09a17.43,17.43,0,0,1-14.38-7.29,1.44,1.44,0,1,1,2.35-1.68,14.73,14.73,0,0,0,13.59,6,15.15,15.15,0,0,0,12.59-8.71,15.51,15.51,0,0,0,0-12.54,12.55,12.55,0,0,0-7.56-7.13,1.45,1.45,0,0,1-.93-1.82,1.46,1.46,0,0,1,1.83-.93,15.41,15.41,0,0,1,9.31,8.72A18.44,18.44,0,0,1,190.53,223.49Z"/><path class="cls-2" d="M247.23,269.7c4.66-15.88,14.13-28.46,23.3-40.62a244.42,244.42,0,0,0,14.05-20C308.47,169.69,304,106.64,262.19,81.19c-13.36-8.14-30.28-12.29-50.29-12.32v99.37a29.27,29.27,0,0,0,12.6,8.34c1.95-11.21,5.46-18.57,10.72-22.44a12.33,12.33,0,0,1,11.16-1.53,12.64,12.64,0,0,1,8.29,8.06A11.74,11.74,0,0,1,252,172.74c-4.65,5-13.75,7.74-21.07,7.74a23,23,0,0,1-4-.35c-.46,3.21-.77,6.31-1,9.08l-.2,2.06c-3.93,39.29-8.58,100.09-9.37,110.53h26.58C242,294.91,246.73,271.42,247.23,269.7Zm7.32-166.77c-.75-.5-1.5-1-2.27-1.45l-1-.58c-1.82-1.06-5.23-2.62-5.74-4.94-.38-1.71,1.09-3,2.57-3.5,2.71-.94,5.75-.13,8.26,1.26,15.41,8.53,26,25.18,30.7,41.8,1.75,6.25,2.79,13.53.69,19.83-.61,1.84-2.09,2.88-3.88,1.68a8.19,8.19,0,0,1-3.12-5,35.36,35.36,0,0,1-.6-6C279.12,128.84,268.75,112.53,254.55,102.93Z"/><path class="cls-2" d="M227.31,177.31c6.7,1.18,17.65-1.28,22.53-6.54a8.88,8.88,0,0,0,2.07-9.24,9.75,9.75,0,0,0-6.43-6.17,9.42,9.42,0,0,0-8.54,1.11C232.27,159.91,229.11,166.74,227.31,177.31Z"/><path class="cls-2" d="M223,188.93c.28-2.86.6-6.08,1.09-9.43h0v0a31.86,31.86,0,0,1-12.14-7.1V301.8h1.47c.74-9.81,5.43-71.22,9.39-110.82Z"/><path class="cls-2" d="M241.33,306.14a28.71,28.71,0,0,1-57.41,0Z"/></g></svg>