<svg xmlns="http://www.w3.org/2000/svg" width="43.028" height="43.028"><g fill="#9345d8"><path d="M39.561 33.971l-.145.174c-4.774 5.728-11.133 8.884-17.902 8.884-6.77 0-13.128-3.155-17.903-8.884l-.144-.174.034-.223c.922-6.014 4.064-10.845 8.847-13.606l.34-.196.271.284c2.259 2.37 5.297 3.674 8.554 3.674s6.295-1.305 8.554-3.674l.271-.284.34.196c4.783 2.761 7.925 7.592 8.848 13.606l.035.223zM21.514 21.489c5.924 0 10.744-4.82 10.744-10.744C32.258 4.821 27.438 0 21.514 0S10.77 4.821 10.77 10.744s4.82 10.745 10.744 10.745z"/></g></svg>